<svg width="1024" height="516" viewBox="0 0 1024 516" fill="none" xmlns="http://www.w3.org/2000/svg">
<path d="M662.028 31.1156C663.648 30.9841 665.213 30.8281 666.758 31.4986C668.718 32.3496 670.758 33.9461 671.528 35.9976C672.128 37.6031 671.988 39.7876 671.138 41.2921C668.993 45.0946 662.943 48.3496 659.568 51.2661C656.808 53.6476 654.148 56.2921 651.728 59.0181C647.928 63.3016 646.253 68.8781 641.853 72.7551C638.653 75.5761 635.218 77.3586 631.193 78.7121C630.413 78.7386 629.633 78.7431 628.848 78.7001C626.658 78.5806 624.528 78.1321 623.073 76.3411C621.848 74.8341 621.438 72.5771 621.638 70.6911C622.768 60.1741 636.708 54.5251 644.578 49.9256C648.128 47.8516 651.358 45.4536 654.608 42.9431C654.128 41.0771 653.703 38.9956 654.403 37.1341C655.628 33.8801 659.133 32.5371 662.028 31.1156Z" fill="#353535"/>
<path d="M182.548 337.267L183.866 337.317C185.31 339.657 184.431 350.077 184.384 353.242C181.514 353.352 178.7 353.597 175.93 354.397C160.605 358.807 150.183 371.437 142.836 384.907C140.898 383.427 139.124 381.747 137.32 380.107C135.03 378.017 132.819 375.842 130.691 373.587C131.282 372.562 131.925 371.597 132.644 370.657C145.398 353.982 161.014 340.222 182.548 337.267Z" fill="#353535"/>
<path d="M181.757 309.727C182.276 309.657 183.151 309.742 183.684 309.757C185.584 311.872 184.514 322.097 184.461 325.447C181.719 325.802 178.95 326.137 176.244 326.707C154.401 331.337 134.54 347.812 122.522 366.152C120.973 364.797 119.5 363.332 117.998 361.927C115.546 359.615 113.106 357.29 110.679 354.952C130.367 330.387 150.394 315.357 181.757 309.727Z" fill="#353535"/>
<path d="M177.528 285.777C179.643 285.442 181.935 285.457 184.08 285.317L184.264 299.002C156.785 301.247 134.688 313.077 115.915 333.017C112.482 336.667 107.329 344.567 103.591 346.852L102.436 346.287L93 336.977C93.8125 335.757 94.73 334.577 95.6305 333.417C115.812 307.452 144.801 289.927 177.528 285.777Z" fill="#353535"/>
<path d="M807.118 464.032C807.798 464.117 808.263 464.262 808.878 464.567C816.498 468.387 823.613 468.097 831.633 465.882C833.303 465.417 835.128 464.632 836.848 464.887L836.318 465.607C834.318 466.457 832.323 467.262 830.218 467.827C824.683 469.312 815.288 471.392 810.138 468.147C808.453 467.087 807.568 465.952 807.118 464.032Z" fill="#858484"/>
<path d="M851.657 447.737C852.472 447.607 851.997 447.587 853.052 448.087C854.477 450.182 855.022 452.787 855.742 455.197C853.992 456.317 852.227 457.257 850.262 457.947C846.347 459.312 842.122 459.632 838.122 460.687C833.607 461.882 829.197 463.872 824.537 464.477C822.467 464.747 820.332 464.557 818.257 464.412C816.157 463.977 814.077 463.212 812.022 462.582C816.845 460.613 821.521 458.306 826.017 455.677C829.897 453.447 833.892 450.427 838.227 449.187C842.217 448.047 846.817 448.737 850.992 447.882C851.212 447.837 851.437 447.787 851.657 447.737Z" fill="#858484"/>
<path d="M725.782 168.475C731.527 172.835 756.968 183.973 759.263 187.681C760.053 188.961 760.128 190.454 759.708 191.879C758.363 196.439 753.823 198.999 750.013 201.252C746.703 203.269 744.262 205.916 741.682 208.756C734.892 197.634 730.168 185.175 722.948 174.355C724.098 172.473 724.922 170.497 725.782 168.475Z" fill="#858484"/>
<path d="M758.098 306.942C768.973 311.307 781.958 310.677 793.273 308.902L776.753 341.657C772.788 349.482 767.673 357.812 765.353 366.282C766.408 369.312 768.098 372.362 768.538 375.557C768.568 375.777 768.583 375.997 768.613 376.212C769.158 380.782 767.498 385.447 767.588 390.102C767.778 399.977 771.818 410.892 774.603 420.327L777.668 430.862C774.062 431.518 770.461 432.207 766.868 432.927C765.023 429.312 763.723 425.197 762.243 421.407L752.873 397.357C749.898 389.827 745.823 382.387 743.833 374.527C738.923 355.132 752.743 326.302 758.098 306.942Z" fill="#858484"/>
<path d="M820.617 299.122C822.247 300.707 823.317 314.787 823.797 318.152C825.847 332.577 827.972 347.707 831.482 361.827C834.432 373.702 838.567 385.272 841.682 397.112C845.647 412.167 849.078 427.352 853.088 442.402C848.318 442.882 843.572 443.382 838.782 443.537C837.562 440.507 836.547 437.397 835.492 434.312C833.467 429.542 832.093 424.297 830.378 419.377L819.617 389.257C811.379 366.305 802.647 343.533 793.427 320.957C795.702 316.552 798.082 312.172 800.032 307.607C807.332 305.752 814.077 302.832 820.617 299.122Z" fill="#858484"/>
<path d="M786.062 193.28C787.428 193.166 788.693 193.068 789.963 193.712C794.988 196.264 801.538 203.083 803.763 208.22C806.098 213.612 805.987 221.01 806.842 226.856C807.832 233.579 809.002 240.349 810.597 246.957C814.022 261.182 819.877 274.912 824.107 288.942C820.382 292.602 816.322 295.492 811.612 297.767C793.712 306.412 771.798 306.642 753.208 300.277C754.343 293.047 755.803 285.932 756.438 278.627C757.457 266.937 756.443 255.492 755.263 243.867C758.374 241.474 761.422 238.999 764.403 236.444C770.903 230.042 776.467 223.724 778.802 214.724C765.437 227.939 753.252 240.541 735.797 248.547C723.792 244.645 711.637 236.53 700.917 229.914C702.018 225.407 703.053 220.885 704.023 216.349C710.773 218.792 727.708 227.291 734.258 226.408C737.633 225.952 744.042 214.973 746.182 212.162C753.697 202.291 773.948 194.877 786.062 193.28Z" fill="#858484"/>
<path fill-rule="evenodd" clip-rule="evenodd" d="M667.238 53.9221C675.033 58.5781 678.343 66.7786 680.853 75.0196C693.183 73.3236 707.138 72.3421 719.398 74.7841C724.698 75.8396 731.657 77.8501 734.657 82.6991C735.978 84.8356 736.538 87.6526 735.818 90.0921C735.178 92.2668 733.707 93.9328 732.227 95.6088C730.906 97.1049 729.577 98.609 728.828 100.49C727.297 104.323 726.241 108.575 725.207 112.736L725.207 112.736L725.207 112.736L725.207 112.737C724.782 114.447 724.361 116.141 723.913 117.785C722.82 121.783 721.697 125.772 720.574 129.76L720.574 129.763L720.573 129.767L720.573 129.767L720.572 129.768L720.572 129.768L720.572 129.769L720.572 129.769L720.572 129.77L720.572 129.77L720.572 129.771L720.571 129.771L720.571 129.772L720.571 129.772L720.571 129.773L720.571 129.773L720.571 129.774L720.571 129.774L720.57 129.775L720.57 129.775L720.57 129.776L720.57 129.776L720.57 129.777L720.57 129.777L720.57 129.778C718.972 135.455 717.374 141.132 715.863 146.833C718.333 149.401 720.48 152.246 722.626 155.09L722.627 155.09C724.72 157.864 726.813 160.637 729.203 163.149C733.228 167.383 745.833 175.187 751.653 175.312C753.281 174.158 753.02 169.94 752.79 166.234C752.671 164.308 752.56 162.521 752.728 161.374C753.208 158.08 754.589 155.39 756.085 152.477L756.123 152.403C755.353 147.713 754.553 142.409 756.733 137.985C758.128 135.16 760.608 133.123 763.608 132.198C770.998 129.92 781.373 133.483 787.863 137.177C793.488 140.376 798.813 145.641 800.383 152.077C802.459 160.573 798.26 165.775 793.886 171.193L793.886 171.193C792.109 173.394 790.303 175.631 788.878 178.139C786.008 183.193 789.942 186.41 793.535 189.347C793.986 189.716 794.431 190.08 794.858 190.443C795.222 190.754 795.597 191.071 795.979 191.394L795.981 191.396C800.528 195.244 806.155 200.006 808.563 205.315C810.273 209.091 810.777 214.136 811.247 218.842C811.44 220.767 811.626 222.635 811.888 224.337C813.118 232.314 814.452 240.477 816.467 248.297C818.432 255.908 821.116 263.363 823.802 270.825L823.802 270.826L823.802 270.826L823.802 270.826L823.802 270.827L823.802 270.827L823.802 270.827L823.803 270.828L823.803 270.828L823.803 270.828L823.803 270.829L823.803 270.829L823.803 270.829L823.803 270.829L823.803 270.83L823.803 270.83L823.803 270.83L823.803 270.831L823.804 270.831L823.804 270.831L823.804 270.832L823.804 270.832L823.804 270.832L823.804 270.833C826.148 277.345 828.495 283.863 830.368 290.497C828.95 291.623 827.719 292.964 826.492 294.3L826.492 294.3L826.488 294.305L826.486 294.307C826.222 294.595 825.958 294.882 825.693 295.167C827.056 300.522 827.822 306.138 828.579 311.688C828.849 313.668 829.118 315.639 829.413 317.587C829.667 319.272 829.921 320.962 830.175 322.654C832.186 336.066 834.226 349.667 837.268 362.822C838.667 368.862 840.642 374.807 842.619 380.759L842.619 380.759L842.619 380.76L842.619 380.761L842.62 380.761L842.62 380.762L842.62 380.762L842.62 380.763L842.62 380.764L842.62 380.764L842.621 380.765L842.621 380.766L842.621 380.766L842.621 380.767L842.621 380.768L842.622 380.768L842.622 380.769L842.622 380.77L842.622 380.77L842.622 380.771L842.622 380.771L842.623 380.772L842.623 380.773L842.623 380.773C844.283 385.77 845.945 390.771 847.268 395.837C850.24 407.001 852.907 418.243 855.268 429.552C855.682 431.614 855.961 433.72 856.239 435.824V435.824L856.24 435.825C856.565 438.286 856.891 440.744 857.433 443.122C857.918 445.244 858.688 447.307 859.457 449.373C860.438 452.004 861.42 454.638 861.818 457.397C862.133 459.572 862.078 462.242 860.538 463.982C857.474 467.448 850.531 468.23 844.77 468.879C842.653 469.117 840.695 469.338 839.148 469.667C837.144 470.096 835.171 470.745 833.199 471.393C831.653 471.902 830.108 472.41 828.548 472.812C823.803 474.033 818.917 474.299 814.046 474.564L813.338 474.602L806.213 470.737L794.363 476.562C794.477 476.802 794.589 477.021 794.694 477.225C795.169 478.154 795.505 478.81 795.358 480.027C794.449 481.062 792.693 481.387 791.195 481.663C790.855 481.726 790.528 481.786 790.228 481.852C787.665 482.552 785.076 483.183 782.49 483.812C781.16 484.136 779.832 484.459 778.508 484.792C776.854 478.262 774.779 471.793 772.708 465.338L772.707 465.336C771.64 462.01 770.574 458.687 769.568 455.362C763.671 457.702 757.905 460.465 752.156 463.219L752.155 463.219L752.154 463.22L752.153 463.221L752.152 463.221L752.151 463.222L752.15 463.222L752.148 463.223L752.147 463.223L752.146 463.224L752.145 463.224L752.144 463.225L752.143 463.226L752.142 463.226L752.141 463.227L752.14 463.227L752.139 463.228C749.86 464.319 747.583 465.41 745.303 466.472C742.636 467.715 739.949 468.926 737.262 470.138C731.947 472.534 726.626 474.932 721.443 477.582C718.786 478.939 717.547 480.182 716.431 481.3C714.99 482.745 713.757 483.981 709.943 484.982C707.084 483.253 704.132 481.667 701.184 480.084L701.184 480.084L701.184 480.083L701.183 480.083C700.322 479.621 699.461 479.158 698.603 478.692C703.93 456.619 710.019 434.715 716.109 412.81C722.142 391.11 728.175 369.409 733.467 347.542C732.064 342.575 730.226 337.684 728.399 332.823C727.85 331.362 727.302 329.904 726.768 328.447C722.774 317.585 718.561 306.856 714.339 296.103L714.335 296.095L714.332 296.087C713.307 293.476 712.281 290.863 711.258 288.247C706.184 275.27 701.537 262.119 696.891 248.974L696.889 248.969L696.887 248.963L696.882 248.95L696.881 248.948C694.868 243.251 692.855 237.555 690.808 231.875L690.289 231.576C686.252 229.249 682.281 226.96 678.848 223.751C674.748 219.915 670.278 214.447 670.063 208.656C662.278 202.122 654.38 195.722 646.482 189.322L646.481 189.322L646.48 189.321C639.627 183.767 632.773 178.214 625.993 172.572C617.617 165.594 609.149 158.727 600.592 151.972C599.637 151.223 598.674 150.44 597.703 149.649L597.702 149.649C595.088 147.522 592.408 145.341 589.628 143.634C587.067 142.06 584.263 141.027 581.459 139.994L581.459 139.994C579.39 139.231 577.32 138.469 575.348 137.489C572.373 136.01 569.738 133.847 568.798 130.543C567.973 127.639 568.698 124.696 570.168 122.134C581.173 102.966 635.448 87.3166 656.628 81.2551C658.698 74.7361 663.733 59.4051 667.238 53.9221ZM781.363 184.673L782.193 184.648C782.968 185.749 783.138 186.268 783.173 187.613C781.859 188.443 778.022 189.598 774.069 190.787C770.649 191.817 767.142 192.872 765.108 193.766C764.698 193.979 764.331 194.047 763.898 194.126H763.898L763.891 194.128C763.835 194.138 763.777 194.149 763.718 194.16C763.692 194.102 763.664 194.046 763.636 193.989C763.587 193.889 763.538 193.788 763.503 193.682C763.098 192.459 763.428 191.25 764.038 190.161C765.4 187.745 771.905 186.558 776.673 185.688L776.673 185.688L776.674 185.688L776.674 185.687L776.674 185.687L776.675 185.687C778.347 185.382 779.805 185.116 780.753 184.849L781.363 184.673ZM721.077 160.731C718.934 157.65 716.612 154.31 713.898 152.207C712.715 157.041 711.658 161.906 710.728 166.795C711.134 167.032 711.643 167.359 712.214 167.726C714.451 169.163 717.642 171.214 719.383 170.894C720.664 168.488 721.916 166.067 723.138 163.63C722.465 162.727 721.781 161.743 721.077 160.731ZM789.768 327.977C791.859 330.199 793.924 336.509 795.441 341.144C795.904 342.559 796.316 343.818 796.662 344.757L782.622 350.812L777.532 352.792C780.256 346.953 783.154 341.183 786.048 335.417L786.048 335.417L786.049 335.416L786.049 335.416L786.049 335.416L786.049 335.415L786.049 335.415L786.05 335.415L786.05 335.414L786.05 335.414L786.05 335.414L786.05 335.413L786.05 335.413L786.051 335.412L786.051 335.412L786.051 335.412L786.051 335.411L786.052 335.41L786.056 335.402L786.056 335.401L786.057 335.4L786.057 335.399L786.058 335.398L786.058 335.397L786.059 335.396L786.059 335.395L786.06 335.395L786.06 335.394L786.061 335.393L786.061 335.392L786.061 335.391L786.062 335.39L786.062 335.389L786.063 335.388L786.063 335.387C787.303 332.918 788.543 330.449 789.768 327.977ZM719.866 93.3397C719.847 93.5161 719.826 93.7038 719.808 93.9066C704.898 87.4736 696.098 88.2356 680.038 90.0636C678.543 96.1906 676.578 102.804 670.728 106.2C668.793 107.322 666.418 107.878 664.238 107.193C661.188 106.237 659.088 103.437 657.733 100.687C657.177 99.563 656.716 98.3776 656.26 97.2021C656.133 96.8755 656.006 96.5497 655.878 96.2261C638.443 100.256 620.543 106.833 605.023 115.765C602.849 117.016 600.358 118.834 597.963 120.583C595.467 122.405 593.075 124.152 591.253 125.101C590.052 125.724 589.697 125.552 588.734 125.086C588.634 125.037 588.527 124.986 588.413 124.932C588.313 124.737 588.227 124.596 588.158 124.484C587.959 124.16 587.899 124.063 588.063 123.548C590.258 116.684 617.793 104.628 625.243 101.579C629.658 99.7716 634.373 97.9416 638.928 96.5486C640.774 95.9839 642.68 95.5249 644.589 95.065L644.589 95.065C647.317 94.408 650.051 93.7495 652.628 92.7791C653.798 92.3386 654.678 91.9681 655.538 91.0201L655.513 90.2976C651.783 88.7136 627.308 97.7946 622.543 99.7241L622.527 99.7304C613.238 103.487 582.046 116.102 578.753 124.725C578.369 125.736 578.482 126.195 578.706 127.109C578.727 127.196 578.75 127.287 578.773 127.383C580.854 129.982 584.88 130.411 588.063 130.75L588.398 130.786C623.408 134.549 690.278 110.625 720.678 94.2261C720.847 94.1407 721.017 94.0555 721.188 93.97L721.188 93.9699C722.454 93.3377 723.757 92.6871 724.823 91.7591C726.193 90.5641 726.913 89.3556 727.008 87.5201C726.118 85.7176 725.208 85.0056 723.308 84.3546C716.678 82.0876 687.728 79.6381 681.968 82.5936C680.959 83.1102 680.958 83.115 680.595 84.2216L680.588 84.2436C681.523 85.1141 682.133 85.3821 683.433 85.4771C685.205 85.6068 687.116 85.403 688.985 85.2039C689.926 85.1036 690.856 85.0044 691.753 84.9496C695.388 84.7271 699.048 84.8711 702.678 85.1476C707.038 85.4801 716.673 86.3381 719.278 90.3256C720.062 91.5249 719.99 92.1914 719.866 93.3397ZM685.523 208.707C688.765 210.385 691.911 212.848 694.953 215.229L694.954 215.229C696.124 216.145 697.279 217.049 698.418 217.892C698.196 218.66 697.992 219.485 697.784 220.326C697.33 222.164 696.856 224.079 696.143 225.644C695.598 226.832 694.963 227.123 693.818 227.619C692.049 227.496 690.696 226.616 689.275 225.692L689.275 225.691C689.061 225.553 688.846 225.413 688.628 225.274C682.733 221.079 678.658 218.056 675.728 211.215C676.091 211.427 676.46 211.65 676.832 211.875L676.833 211.876C677.898 212.521 678.994 213.185 680.098 213.659C681.328 214.185 681.888 214.053 683.118 213.635C684.299 212.347 684.782 210.908 685.316 209.316C685.351 209.214 685.386 209.11 685.421 209.006C685.454 208.907 685.488 208.807 685.523 208.707ZM766.858 161.503C764.358 159.381 761.853 157.309 759.213 155.363C756.768 158.171 755.663 160.626 754.673 164.193C756.438 169.013 756.523 172.347 756.013 177.424C756.405 177.779 757.105 178.498 757.95 179.366C760.366 181.849 763.973 185.556 765.003 185.483C765.281 185.463 765.746 185.289 766.066 185.17L766.066 185.17C766.113 185.152 766.158 185.136 766.198 185.121L771.098 182.865C766.612 175.567 766.699 170.565 766.838 162.633C766.845 162.263 766.851 161.886 766.858 161.503ZM773.763 434.647L773.969 434.627C774.954 434.531 775.252 434.502 776.228 434.952C777.897 439.089 779.117 443.507 780.322 447.87C780.733 449.36 781.142 450.844 781.568 452.307C782.037 453.925 782.52 455.547 783.003 457.172L783.004 457.176C784.927 463.636 786.868 470.158 788.063 476.752L782.953 477.952C782.205 477.489 781.929 476.727 781.635 475.915L781.633 475.907C780.35 472.399 779.315 468.734 778.283 465.082C777.641 462.81 777 460.544 776.303 458.322C774.263 451.828 771.873 445.439 769.487 439.061L769.486 439.06L769.486 439.06L769.486 439.059L769.486 439.058L769.485 439.058L769.485 439.057L769.485 439.057L769.485 439.056L769.485 439.055L769.484 439.055L769.484 439.054L769.484 439.053L769.484 439.053L769.475 439.031C769.104 438.038 768.732 437.045 768.363 436.052L773.763 434.647ZM752.432 411.094C749.67 403.248 744.938 389.807 742.508 387.372C741.986 389.531 741.471 391.694 740.955 393.858L740.953 393.867C738.466 404.308 735.97 414.785 732.683 424.987C733.678 424.532 734.672 424.068 735.667 423.604L735.668 423.603L735.67 423.603L735.671 423.602L735.672 423.601L735.673 423.601L735.675 423.6L735.676 423.6L735.677 423.599L735.678 423.599L735.68 423.598L735.681 423.598L735.682 423.597C737.735 422.638 739.791 421.678 741.873 420.797C745.902 419.002 749.953 417.253 754.023 415.552C753.646 414.543 753.096 412.98 752.432 411.094ZM748.238 298.935L748.238 298.936L748.238 298.937L748.238 298.94L748.237 298.945L748.237 298.946C747.861 301.035 747.551 302.758 747.408 303.767C748.777 304.464 750.219 305.018 751.655 305.57L751.656 305.57L751.656 305.57L751.657 305.57C751.983 305.695 752.308 305.82 752.633 305.947L746.013 326.702L743.533 319.707C739.2 308.819 735.028 297.868 731.018 286.857C737.537 284.233 744.01 281.494 750.433 278.642C751.515 280.723 749.504 291.9 748.238 298.935L748.238 298.935ZM669.878 61.2301C669.442 60.7737 668.988 60.3345 668.518 59.9136C668.018 61.2896 667.423 62.8317 666.782 64.4951L666.782 64.4951L666.781 64.4967L666.781 64.4972C662.71 75.0596 656.753 90.5126 661.102 99.4041C661.893 101.014 663.548 102.841 665.308 103.393C666.226 103.681 667.242 103.666 668.197 103.652L668.248 103.651C674.028 98.3466 676.827 90.9246 677.162 83.1596C677.488 75.6236 675.143 66.8276 669.878 61.2301ZM721.886 248.684L721.886 248.684L721.886 248.684L721.886 248.684L721.886 248.684L721.886 248.684L721.886 248.684L721.887 248.684L721.887 248.685C725.229 250.523 728.598 252.376 732.128 253.297C737.966 254.82 743.396 251.42 748.284 248.361C748.947 247.945 749.6 247.537 750.243 247.147C750.37 248.437 750.541 249.903 750.724 251.473L750.724 251.474L750.724 251.474C751.493 258.072 752.48 266.534 751.418 271.727C751.259 272.504 751.17 272.558 750.759 272.808C750.651 272.874 750.521 272.953 750.363 273.062C744.379 275.252 738.467 277.696 732.567 280.135L732.566 280.135C731.353 280.637 730.14 281.138 728.928 281.637C724.621 269.487 720.119 257.407 715.423 245.402C717.59 246.321 719.732 247.499 721.886 248.684ZM831.618 440.797L831.618 440.797C830.583 437.132 829.396 432.931 827.927 431.127C822.984 433.361 818.017 435.549 813.049 437.737L813.042 437.74C804.195 441.637 795.345 445.535 786.627 449.697C786.82 450.382 787.157 451.732 787.582 453.432C789.079 459.424 791.663 469.764 792.812 470.672L793.227 470.702L803.347 465.862C803.229 465.639 803.107 465.418 802.986 465.198L802.986 465.197C802.333 464.014 801.694 462.853 801.672 461.462C803.28 459.728 807.004 458.395 810.133 457.275C811.326 456.848 812.433 456.452 813.302 456.077C820.153 453.048 826.745 449.464 833.012 445.362C832.573 444.176 832.113 442.548 831.618 440.797ZM697.573 234.436C700.619 235.888 703.441 237.931 706.211 239.936L706.213 239.937L706.22 239.943L706.222 239.944C706.953 240.473 707.681 241 708.407 241.512C710.085 246.944 712.131 252.315 714.168 257.664C714.991 259.824 715.812 261.981 716.607 264.137L733.407 309.022C734.052 310.736 734.706 312.45 735.361 314.166C738.138 321.441 740.929 328.751 743.013 336.232L740.562 345.482C740.42 345.963 740.21 346.432 740.002 346.896L740.001 346.896L740 346.9L739.922 347.074C739.893 347.139 739.864 347.205 739.835 347.27L739.797 347.357L739.198 347.172C738.568 345.567 738.067 343.926 737.566 342.285C737.168 340.981 736.77 339.678 736.307 338.392C734.067 332.139 731.708 325.914 729.351 319.693C728.242 316.766 727.133 313.84 726.037 310.912C716.282 285.52 706.794 260.027 697.573 234.436ZM737.443 358.552C737.378 358.152 737.128 357.757 736.848 357.472C735.178 362.631 733.867 367.945 732.561 373.239L732.561 373.24L732.56 373.24L732.56 373.241L732.56 373.241L732.56 373.242L732.56 373.242L732.56 373.243C732.047 375.321 731.535 377.396 731.003 379.457C728.328 389.618 725.581 399.76 722.763 409.882L711.093 453.372C710.479 455.68 709.832 457.992 709.182 460.309L709.182 460.31C707.577 466.04 705.964 471.799 704.843 477.592L709.243 480.147L711.073 480.802C712.173 480.037 712.553 479.422 712.938 478.117C713.78 475.266 714.441 472.316 715.103 469.361C715.678 466.792 716.255 464.218 716.953 461.702C724.719 434.002 732.121 406.201 739.158 378.307C737.848 373.472 737.458 369.037 737.398 364.027C737.39 363.418 737.431 362.747 737.473 362.062C737.548 360.85 737.625 359.593 737.443 358.552ZM709.823 171.523C712.693 173.369 715.557 175.021 718.607 176.557C720.951 180.74 723.122 185.039 725.294 189.34C729.374 197.417 733.458 205.503 738.698 212.849C738.154 213.574 737.614 214.459 737.055 215.378L737.055 215.378C735.888 217.292 734.635 219.347 733.088 220.382C731.947 221.143 731.198 220.925 730.149 220.62C729.906 220.549 729.647 220.474 729.362 220.405C720.867 217.269 713.557 214.119 705.722 209.555C704.897 209.073 704.242 208.3 703.687 207.501C702.613 205.966 702.282 204.076 702.352 202.238C702.494 198.45 703.783 194.326 705.004 190.417L705.005 190.416L705.005 190.415C705.463 188.948 705.912 187.511 706.287 186.134C707.425 181.973 708.391 177.76 709.356 173.553C709.511 172.876 709.667 172.199 709.823 171.523ZM764.389 440.879C761.488 432.668 757.958 422.672 756.323 420.637C751.882 422.352 747.541 424.29 743.203 426.226L743.203 426.226L743.202 426.227L743.202 426.227L743.202 426.227L743.201 426.227C739.192 428.017 735.185 429.806 731.102 431.417C728.205 442.694 724.979 453.902 721.757 465.097L721.757 465.099L721.751 465.118L721.746 465.137C721.013 467.682 720.281 470.227 719.552 472.772L728.133 468.612C740.928 462.262 754.568 455.572 768.073 450.932C767.263 449.017 765.913 445.194 764.389 440.879ZM797.253 349.992L798.162 350.017C800.039 351.748 806.594 369.706 810.224 379.649L810.224 379.649L810.224 379.65C811.207 382.342 811.975 384.446 812.378 385.482C802.111 390.072 791.749 394.445 781.297 398.597L774.778 401.362C774.579 400.18 774.323 398.978 774.065 397.766C773.477 395.005 772.879 392.195 772.927 389.457C772.995 385.807 773.385 383.359 773.708 381.335C774.411 376.92 774.793 374.526 770.802 366.092L773.768 360.487C779.347 357.377 785.43 354.877 791.429 352.413L791.432 352.412L791.433 352.411L791.435 352.411C793.39 351.607 795.336 350.808 797.253 349.992ZM814.177 391.347L813.258 390.987C808.322 393.22 803.339 395.338 798.357 397.456L798.355 397.456L798.354 397.457L798.354 397.457C791.044 400.564 783.736 403.67 776.583 407.137C778.196 413.619 779.771 420.111 781.307 426.612C781.714 428.406 781.98 430.333 782.25 432.289C782.81 436.342 783.386 440.518 785.268 443.877C786.443 443.662 787.257 443.322 788.307 442.757C796.043 439.009 803.99 435.574 811.929 432.142L811.93 432.142L811.93 432.141C816.794 430.039 821.655 427.938 826.463 425.767C825.335 422.743 824.044 418.631 822.663 414.237C819.983 405.706 816.969 396.112 814.177 391.347ZM719.643 106.46L719.448 106.162C688.138 123.655 631.038 141.134 594.903 141.656C608.989 151.901 622.676 162.685 635.933 173.984L661.368 194.75C662.683 195.829 664.025 196.989 665.393 198.171C669.566 201.778 673.978 205.591 678.618 207.955C679.363 207.559 679.54 207.355 680.012 206.811C680.056 206.76 680.103 206.706 680.153 206.649C681.128 205.542 682.148 204.737 683.698 204.67C686.352 204.556 689.66 207.186 692.303 209.289C693.09 209.915 693.818 210.494 694.453 210.94C695.143 209.606 695.698 208.26 696.068 206.804C697.459 201.29 698.691 195.716 699.923 190.143C700.785 186.245 701.647 182.348 702.563 178.473L716.713 118.475C716.98 117.291 717.429 115.904 717.897 114.46C718.804 111.66 719.781 108.642 719.643 106.46Z" fill="#353535"/>
<path d="M210.28 280.24H226.56V348H210.28V280.24ZM232.693 297.136L240.789 298.808L248.973 297.136V348H232.693V297.136ZM240.877 292.56C238.002 292.56 235.655 291.827 233.837 290.36C232.018 288.835 231.109 286.84 231.109 284.376C231.109 281.853 232.018 279.859 233.837 278.392C235.655 276.925 238.002 276.192 240.877 276.192C243.81 276.192 246.157 276.925 247.917 278.392C249.677 279.859 250.557 281.853 250.557 284.376C250.557 286.84 249.677 288.835 247.917 290.36C246.157 291.827 243.81 292.56 240.877 292.56ZM286.169 340.344L280.449 340.256L298.577 297.84H316.001L292.329 348H273.761L250.089 297.84H268.129L286.169 340.344ZM342.989 349.408C337.005 349.408 331.637 348.293 326.885 346.064C322.191 343.835 318.495 340.725 315.797 336.736C313.098 332.747 311.749 328.083 311.749 322.744C311.749 317.523 313.039 312.947 315.621 309.016C318.202 305.085 321.751 302.005 326.269 299.776C330.845 297.547 336.007 296.432 341.757 296.432C347.623 296.432 352.669 297.723 356.893 300.304C361.117 302.885 364.373 306.523 366.661 311.216C368.949 315.909 370.093 321.424 370.093 327.76H324.861V317.464H361.117L355.221 321.16C355.045 318.403 354.37 316.085 353.197 314.208C352.082 312.272 350.586 310.805 348.709 309.808C346.831 308.752 344.602 308.224 342.021 308.224C339.205 308.224 336.77 308.781 334.717 309.896C332.663 311.011 331.05 312.565 329.877 314.56C328.762 316.555 328.205 318.872 328.205 321.512C328.205 324.856 328.938 327.701 330.405 330.048C331.93 332.395 334.101 334.184 336.917 335.416C339.791 336.648 343.282 337.264 347.389 337.264C351.143 337.264 354.898 336.765 358.653 335.768C362.407 334.712 365.781 333.245 368.773 331.368V342.016C365.37 344.363 361.469 346.181 357.069 347.472C352.727 348.763 348.034 349.408 342.989 349.408ZM407.381 291.064C403.391 291.064 400.546 291.827 398.845 293.352C397.202 294.877 396.381 297.283 396.381 300.568V348H380.013V301.536C380.013 296.784 380.951 292.736 382.829 289.392C384.706 285.989 387.522 283.379 391.277 281.56C395.09 279.741 399.813 278.832 405.445 278.832C408.026 278.832 410.314 279.037 412.309 279.448C414.303 279.8 416.386 280.299 418.557 280.944V293.088C416.797 292.443 415.007 291.944 413.189 291.592C411.37 291.24 409.434 291.064 407.381 291.064ZM369.717 313.944V301.8H417.413V313.944H369.717ZM440.836 349.32C436.201 349.32 432.212 348.381 428.868 346.504C425.583 344.568 423.06 341.84 421.3 338.32C419.599 334.8 418.748 330.635 418.748 325.824V297.84H435.116V323.448C435.116 327.496 436.084 330.605 438.02 332.776C439.956 334.947 442.743 336.032 446.38 336.032C449.079 336.032 451.367 335.475 453.244 334.36C455.121 333.245 456.559 331.632 457.556 329.52C458.612 327.408 459.14 324.915 459.14 322.04L464.244 324.768C463.657 330.048 462.249 334.536 460.02 338.232C457.849 341.869 455.092 344.627 451.748 346.504C448.463 348.381 444.825 349.32 440.836 349.32ZM462.308 348L459.14 328.464V297.84H475.42V330.928L478.676 348H462.308ZM480.051 297.84H496.331L499.587 317.376V348H483.219V314.912L480.051 297.84ZM518.331 296.432C523.142 296.432 527.219 297.4 530.563 299.336C533.966 301.272 536.547 304 538.307 307.52C540.126 310.981 541.035 315.147 541.035 320.016V348H524.667V322.48C524.667 318.315 523.64 315.176 521.587 313.064C519.534 310.893 516.6 309.808 512.787 309.808C510.088 309.808 507.742 310.395 505.747 311.568C503.752 312.683 502.227 314.296 501.171 316.408C500.115 318.461 499.587 320.925 499.587 323.8L494.395 321.072C495.04 315.733 496.478 311.245 498.707 307.608C500.995 303.971 503.811 301.213 507.155 299.336C510.558 297.4 514.283 296.432 518.331 296.432ZM543.971 297.84H560.251L563.507 317.376V348H547.139V314.912L543.971 297.84ZM582.251 296.432C587.062 296.432 591.139 297.4 594.483 299.336C597.886 301.272 600.467 304 602.227 307.52C604.046 310.981 604.955 315.147 604.955 320.016V348H588.587V322.48C588.587 318.315 587.561 315.176 585.507 313.064C583.454 310.893 580.521 309.808 576.707 309.808C574.009 309.808 571.662 310.395 569.667 311.568C567.673 312.683 566.147 314.296 565.091 316.408C564.035 318.461 563.507 320.925 563.507 323.8L558.315 321.072C558.961 315.733 560.398 311.245 562.627 307.608C564.915 303.971 567.731 301.213 571.075 299.336C574.478 297.4 578.203 296.432 582.251 296.432ZM639.215 349.408C633.231 349.408 627.863 348.293 623.111 346.064C618.418 343.835 614.722 340.725 612.023 336.736C609.325 332.747 607.975 328.083 607.975 322.744C607.975 317.523 609.266 312.947 611.847 309.016C614.429 305.085 617.978 302.005 622.495 299.776C627.071 297.547 632.234 296.432 637.983 296.432C643.85 296.432 648.895 297.723 653.119 300.304C657.343 302.885 660.599 306.523 662.887 311.216C665.175 315.909 666.319 321.424 666.319 327.76H621.087V317.464H657.343L651.447 321.16C651.271 318.403 650.597 316.085 649.423 314.208C648.309 312.272 646.813 310.805 644.935 309.808C643.058 308.752 640.829 308.224 638.247 308.224C635.431 308.224 632.997 308.781 630.943 309.896C628.89 311.011 627.277 312.565 626.103 314.56C624.989 316.555 624.431 318.872 624.431 321.512C624.431 324.856 625.165 327.701 626.631 330.048C628.157 332.395 630.327 334.184 633.143 335.416C636.018 336.648 639.509 337.264 643.615 337.264C647.37 337.264 651.125 336.765 654.879 335.768C658.634 334.712 662.007 333.245 664.999 331.368V342.016C661.597 344.363 657.695 346.181 653.295 347.472C648.954 348.763 644.261 349.408 639.215 349.408ZM670.063 280.24H686.343V348H670.063V280.24Z" fill="#353535"/>
<path d="M866.165 344.77C864.625 344.77 863.213 344.411 861.93 343.692C860.698 342.973 859.723 341.998 859.004 340.766C858.285 339.483 857.926 338.071 857.926 336.531C857.926 334.991 858.285 333.605 859.004 332.373C859.723 331.141 860.698 330.166 861.93 329.447C863.213 328.677 864.625 328.292 866.165 328.292C867.705 328.292 869.091 328.677 870.323 329.447C871.555 330.166 872.53 331.141 873.249 332.373C873.968 333.605 874.327 334.991 874.327 336.531C874.327 338.071 873.968 339.483 873.249 340.766C872.53 341.998 871.555 342.973 870.323 343.692C869.091 344.411 867.705 344.77 866.165 344.77ZM875.949 300.11H890.425L893.043 315.895V344H878.721V314.663L875.949 300.11ZM913.987 299.494V311.814C912.601 311.506 911.215 311.275 909.829 311.121C908.494 310.967 907.262 310.89 906.133 310.89C903.669 310.89 901.436 311.403 899.434 312.43C897.483 313.405 895.917 314.971 894.737 317.127C893.607 319.283 893.043 322.081 893.043 325.52L890.194 321.978C890.553 318.847 891.143 315.895 891.965 313.123C892.786 310.351 893.915 307.913 895.353 305.808C896.79 303.652 898.561 301.958 900.666 300.726C902.822 299.494 905.414 298.878 908.443 298.878C909.315 298.878 910.239 298.929 911.215 299.032C912.19 299.135 913.114 299.289 913.987 299.494ZM934.622 345.155C930.567 345.155 927.076 344.334 924.15 342.691C921.276 340.997 919.068 338.61 917.528 335.53C916.04 332.45 915.295 328.805 915.295 324.596V300.11H929.617V322.517C929.617 326.059 930.464 328.78 932.158 330.679C933.852 332.578 936.291 333.528 939.473 333.528C941.835 333.528 943.837 333.04 945.479 332.065C947.122 331.09 948.38 329.678 949.252 327.83C950.176 325.982 950.638 323.8 950.638 321.285L955.104 323.672C954.591 328.292 953.359 332.219 951.408 335.453C949.509 338.636 947.096 341.048 944.17 342.691C941.296 344.334 938.113 345.155 934.622 345.155ZM953.41 344L950.638 326.906V300.11H964.883V329.062L967.732 344H953.41Z" fill="#353535"/>
</svg>
